<svg xmlns="http://www.w3.org/2000/svg" xmlns:xlink="http://www.w3.org/1999/xlink" width="500" zoomAndPan="magnify" viewBox="0 0 375 374.999991" height="500" preserveAspectRatio="xMidYMid meet" version="1.0"><defs><g/><clipPath id="9740f3da06"><path d="M 78.585938 149.015625 L 296.078125 149.015625 L 296.078125 222.972656 L 78.585938 222.972656 Z M 78.585938 149.015625 " clip-rule="nonzero"/></clipPath><clipPath id="757429e712"><path d="M 276.71875 166.003906 L 296.21875 166.003906 L 296.21875 205.753906 L 276.71875 205.753906 Z M 276.71875 166.003906 " clip-rule="nonzero"/></clipPath></defs><rect x="-37.5" width="450" fill="#ffffff" y="-37.499999" height="449.999989" fill-opacity="1"/><rect x="-37.5" width="450" fill="#ffffff" y="-37.499999" height="449.999989" fill-opacity="1"/><g clip-path="url(#9740f3da06)"><path stroke-linecap="butt" transform="matrix(0.75, 0, 0, 0.75, 78.586053, 149.017301)" fill="none" stroke-linejoin="miter" d="M -0.000153919 -0.00223415 L 290.426967 -0.00223415 L 290.426967 98.607154 L -0.000153919 98.607154 Z M -0.000153919 -0.00223415 " stroke="#d61922" stroke-width="8" stroke-opacity="1" stroke-miterlimit="4"/></g><g clip-path="url(#757429e712)"><path fill="#d61922" d="M 276.714844 186.003906 C 276.714844 180.550781 278.921875 175.640625 282.488281 172.070312 C 286.058594 168.503906 290.992188 166.296875 296.421875 166.296875 C 296.421875 172.6875 296.421875 199.300781 296.421875 205.707031 C 290.992188 205.707031 286.058594 203.5 282.488281 199.933594 C 278.921875 196.363281 276.714844 191.433594 276.714844 186.003906 Z M 276.714844 186.003906 " fill-opacity="1" fill-rule="nonzero"/></g><g fill="#d61922" fill-opacity="1"><g transform="translate(88.530263, 200.453793)"><g><path d="M 31.078125 -36.328125 L 29.8125 -28.328125 L 22.015625 -28.328125 L 17.53125 0 L 8.09375 0 L 12.578125 -28.328125 L 4.765625 -28.328125 L 6.015625 -36.328125 Z M 31.078125 -36.328125 "/></g></g></g><g fill="#d61922" fill-opacity="1"><g transform="translate(109.100309, 200.453793)"><g><path d="M 18.25 -36.328125 L 12.53125 0 L 3.078125 0 L 8.8125 -36.328125 Z M 18.25 -36.328125 "/></g></g></g><g fill="#d61922" fill-opacity="1"><g transform="translate(119.601872, 200.453793)"><g><path d="M 32.859375 -24.140625 C 32.117188 -25.421875 31.066406 -26.40625 29.703125 -27.09375 C 28.335938 -27.78125 26.832031 -28.125 25.1875 -28.125 C 22.144531 -28.125 19.484375 -26.953125 17.203125 -24.609375 C 14.921875 -22.265625 13.78125 -19.488281 13.78125 -16.28125 C 13.78125 -13.875 14.550781 -11.921875 16.09375 -10.421875 C 17.632812 -8.929688 19.671875 -8.1875 22.203125 -8.1875 C 23.742188 -8.1875 25.289062 -8.53125 26.84375 -9.21875 C 28.40625 -9.914062 29.78125 -10.859375 30.96875 -12.046875 L 29.140625 -0.71875 C 28.460938 -0.5 27.28125 -0.164062 25.59375 0.28125 C 23.914062 0.738281 22.238281 0.96875 20.5625 0.96875 C 17.644531 0.96875 14.914062 0.332031 12.375 -0.9375 C 9.84375 -2.207031 7.796875 -3.988281 6.234375 -6.28125 C 4.679688 -8.582031 3.890625 -11.257812 3.859375 -14.3125 C 3.859375 -18.414062 4.867188 -22.207031 6.890625 -25.6875 C 8.910156 -29.175781 11.710938 -31.976562 15.296875 -34.09375 C 18.878906 -36.21875 22.5625 -37.28125 26.34375 -37.28125 C 29.039062 -37.28125 31.820312 -36.671875 34.6875 -35.453125 Z M 32.859375 -24.140625 "/></g></g></g><g fill="#d61922" fill-opacity="1"><g transform="translate(146.290088, 200.453793)"><g><path d="M 18.25 -36.328125 L 15.890625 -21.34375 L 16 -21.34375 L 29.765625 -36.328125 L 41.46875 -36.328125 L 24.328125 -19.125 L 37.046875 0 L 24.8125 0 L 15.125 -15.75 L 15.03125 -15.75 L 12.53125 0 L 3.078125 0 L 8.8125 -36.328125 Z M 18.25 -36.328125 "/></g></g></g><g fill="#d61922" fill-opacity="1"><g transform="translate(177.69942, 200.453793)"><g><path d="M 29.484375 -36.328125 L 28.234375 -28.328125 L 17 -28.328125 L 16.046875 -22.25 L 26.6875 -22.25 L 25.4375 -14.265625 L 14.78125 -14.265625 L 13.78125 -8 L 25 -8 L 23.75 0 L 3.078125 0 L 8.8125 -36.328125 Z M 29.484375 -36.328125 "/></g></g></g><g fill="#d61922" fill-opacity="1"><g transform="translate(198.24938, 200.453793)"><g><path d="M 31.078125 -36.328125 L 29.8125 -28.328125 L 22.015625 -28.328125 L 17.53125 0 L 8.09375 0 L 12.578125 -28.328125 L 4.765625 -28.328125 L 6.015625 -36.328125 Z M 31.078125 -36.328125 "/></g></g></g><g fill="#d61922" fill-opacity="1"><g transform="translate(218.819427, 200.453793)"><g><path d="M 29.484375 -36.328125 L 28.234375 -28.328125 L 17 -28.328125 L 16.046875 -22.25 L 26.6875 -22.25 L 25.4375 -14.265625 L 14.78125 -14.265625 L 13.78125 -8 L 25 -8 L 23.75 0 L 3.078125 0 L 8.8125 -36.328125 Z M 29.484375 -36.328125 "/></g></g></g><g fill="#d61922" fill-opacity="1"><g transform="translate(240.208436, 200.453793)"><g><path d="M 23.171875 -36.328125 C 26.441406 -36.328125 29.066406 -35.554688 31.046875 -34.015625 C 33.023438 -32.472656 34.015625 -30.253906 34.015625 -27.359375 C 34.015625 -24.273438 33.097656 -21.550781 31.265625 -19.1875 C 29.429688 -16.832031 27.085938 -15.398438 24.234375 -14.890625 L 33.28125 0 L 21.53125 0 L 14.84375 -13.96875 L 14.734375 -13.96875 L 12.53125 0 L 3.078125 0 L 8.8125 -36.328125 Z M 15.703125 -20.046875 L 17 -20.046875 C 19.21875 -20.046875 20.9375 -20.507812 22.15625 -21.4375 C 23.375 -22.363281 23.984375 -23.726562 23.984375 -25.53125 C 23.984375 -27.90625 22.023438 -29.09375 18.109375 -29.09375 L 17.15625 -29.09375 Z M 15.703125 -20.046875 "/></g></g></g></svg>